<svg width='200' height='200' fill="#000000" xmlns="http://www.w3.org/2000/svg" xmlns:xlink="http://www.w3.org/1999/xlink" version="1.1" x="0px" y="0px" viewBox="0 0 100 100" enable-background="new 0 0 100 100" xml:space="preserve"><path d="M50,7.5C26.56,7.5,7.5,26.56,7.5,50c0,23.44,19.06,42.5,42.5,42.5c23.44,0,42.5-19.06,42.5-42.5  C92.5,26.56,73.44,7.5,50,7.5z M65.91,50.11c0,0.04-0.01,0.08-0.01,0.11c-0.011,0.04-0.021,0.08-0.03,0.11  c-0.01,0.04-0.021,0.08-0.04,0.11c-0.01,0.04-0.03,0.07-0.04,0.1c-0.021,0.04-0.04,0.07-0.07,0.11c-0.01,0.02-0.02,0.04-0.029,0.05  c-0.021,0.02-0.03,0.04-0.051,0.06c0,0.01-0.01,0.021-0.02,0.03c-0.05,0.05-0.101,0.1-0.15,0.14c-0.01,0-0.01,0.011-0.01,0.011  L42.04,68.47c-0.21,0.16-0.46,0.23-0.7,0.23c-0.36,0-0.71-0.16-0.94-0.47c-0.39-0.511-0.28-1.25,0.23-1.641L62.8,50L40.63,33.4  c-0.51-0.38-0.62-1.12-0.23-1.63c0.39-0.52,1.12-0.63,1.64-0.24l23.42,17.53c0.01,0.01,0.021,0.02,0.03,0.03  c0.029,0.03,0.06,0.06,0.09,0.08c0.03,0.03,0.05,0.06,0.08,0.09c0.01,0.02,0.02,0.03,0.03,0.04c0.01,0.01,0.02,0.03,0.029,0.05  c0.03,0.04,0.05,0.07,0.07,0.11c0.01,0.03,0.03,0.07,0.04,0.1c0.02,0.03,0.03,0.07,0.04,0.11c0.01,0.03,0.02,0.07,0.03,0.11  c0,0.03,0.01,0.07,0.01,0.11c0.01,0.03,0.01,0.07,0.01,0.11S65.92,50.08,65.91,50.11z"/></svg>