<?xml version="1.0" encoding="utf-8"?>
<!-- Generator: Adobe Illustrator 22.0.1, SVG Export Plug-In . SVG Version: 6.00 Build 0)  -->
<svg version="1.1" id="Capa_1" xmlns="http://www.w3.org/2000/svg" xmlns:xlink="http://www.w3.org/1999/xlink" x="0px" y="0px"
	 viewBox="0 0 200 200" style="enable-background:new 0 0 200 200;" xml:space="preserve">
<style type="text/css">
	.st0{fill:#3ADB76;}
</style>
<path class="st0" d="M100,15c-46.9,0-85,38.1-85,85s38.1,85,85,85s85-38.1,85-85S146.9,15,100,15z M147.1,67.2l-68.9,68.8
	c-0.4,0.5-1,0.7-1.6,0.7s-1.2-0.2-1.7-0.7L52.9,114c-0.9-0.9-0.9-2.4,0-3.3c0.9-0.9,2.4-0.9,3.3,0l20.5,20.4l67.2-67.2
	c0.9-0.9,2.4-0.9,3.3,0C148,64.8,148,66.3,147.1,67.2z"/>
</svg>
