<?xml version="1.0" encoding="utf-8"?>
<!-- Generator: Adobe Illustrator 22.0.1, SVG Export Plug-In . SVG Version: 6.00 Build 0)  -->
<svg version="1.1" id="Capa_1" xmlns="http://www.w3.org/2000/svg" xmlns:xlink="http://www.w3.org/1999/xlink" x="0px" y="0px"
	 viewBox="0 0 100 100" style="enable-background:new 0 0 100 100;" xml:space="preserve">
<style type="text/css">
	.st0{fill:#FFFFFF;}
</style>
<title>55</title>
<desc>Created with Sketch.</desc>
<g>
	<g>
		<g>
			<path d="M66.5,64.9L48.3,54.7l36.5-43.3L66.5,64.9z M44.3,64.2l2.1-6.1l2.4,1.3L44.3,64.2z M75.6,10.6L30.8,44.5l-14.4-8
				L75.6,10.6z M43.8,54C43.7,54,43.7,54,43.8,54c-0.1,0.1-0.1,0.1-0.1,0.1c0,0,0,0,0,0.1c0,0,0,0.1-0.1,0.1c0,0,0,0,0,0.1
				c0,0,0,0.1,0,0.1c0,0,0,0.1,0,0.1c0,0,0,0,0,0L39.5,66l-6.3-18.5l44-33.3L43.8,54z M91.9,2.7C91.9,2.6,91.9,2.6,91.9,2.7
				c0-0.1,0-0.1,0-0.2c0,0,0-0.1,0-0.1c0,0,0-0.1,0-0.1c0,0,0-0.1,0-0.1c0,0,0-0.1,0-0.1c0,0,0-0.1,0-0.1c0,0,0-0.1,0-0.1
				c0,0,0-0.1,0-0.1s0-0.1,0-0.1c0,0,0-0.1,0-0.1c0,0,0-0.1,0-0.1c0,0,0-0.1,0-0.1c0,0,0-0.1,0-0.1c0,0,0-0.1,0-0.1c0,0,0,0,0-0.1
				c0,0,0-0.1-0.1-0.1c0,0,0,0,0,0c0,0,0,0,0,0c0-0.1-0.1-0.1-0.1-0.1c0,0,0,0,0,0c0,0-0.1-0.1-0.1-0.1c0,0,0,0-0.1-0.1
				c0,0,0,0-0.1-0.1c0,0,0,0-0.1-0.1c0,0,0,0-0.1-0.1c0,0-0.1,0-0.1-0.1c0,0,0,0-0.1,0c0,0-0.1,0-0.1-0.1c0,0,0,0,0,0c0,0,0,0,0,0
				c0,0-0.1,0-0.1,0c0,0-0.1,0-0.1,0c0,0,0,0-0.1,0c0,0-0.1,0-0.1,0c0,0,0,0-0.1,0c0,0-0.1,0-0.1,0c0,0,0,0-0.1,0c0,0-0.1,0-0.1,0
				c0,0,0,0-0.1,0c0,0-0.1,0-0.1,0c0,0,0,0-0.1,0c0,0-0.1,0-0.1,0c0,0-0.1,0-0.1,0c0,0-0.1,0-0.1,0c0,0-0.1,0-0.1,0c0,0-0.1,0-0.1,0
				c0,0,0,0-0.1,0c0,0-0.1,0-0.1,0c0,0,0,0-0.1,0c0,0-0.1,0-0.1,0c0,0,0,0,0,0L11.1,34.4c-0.7,0.3-1.1,1-1.2,1.7s0.4,1.4,1,1.8
				l18.3,10.2l8.4,24.5c0,0,0,0,0,0l0,0c0,0.1,0,0.1,0.1,0.1c0,0,0,0,0,0.1c0,0,0,0.1,0,0.1c0,0,0,0,0,0.1c0,0,0,0.1,0.1,0.1
				c0,0,0,0,0,0.1c0,0,0.1,0.1,0.1,0.1c0,0,0,0,0,0c0,0,0.1,0.1,0.1,0.1c0,0,0,0,0,0c0,0,0,0,0,0c0,0,0.1,0.1,0.1,0.1c0,0,0,0,0.1,0
				c0,0,0.1,0,0.1,0.1c0,0,0,0,0.1,0c0,0,0.1,0,0.1,0.1c0,0,0.1,0,0.1,0c0,0,0.1,0,0.1,0c0,0,0.1,0,0.1,0c0,0,0.1,0,0.1,0
				c0,0,0,0,0.1,0c0,0,0.1,0,0.1,0c0,0,0,0,0.1,0c0,0,0.1,0,0.1,0c0,0,0,0,0.1,0c0.1,0,0.1,0,0.2,0c0,0,0,0,0,0h0h0
				c0.1,0,0.1,0,0.2,0c0,0,0,0,0.1,0c0,0,0.1,0,0.1,0c0,0,0,0,0.1,0c0,0,0.1,0,0.1,0c0,0,0,0,0.1,0c0.1,0,0.1,0,0.2-0.1
				c0,0,0,0,0.1,0c0,0,0.1,0,0.1-0.1c0,0,0,0,0.1,0c0,0,0.1,0,0.1-0.1c0,0,0,0,0.1,0c0,0,0.1-0.1,0.1-0.1c0,0,0,0,0,0
				c0,0,0.1-0.1,0.1-0.1c0,0,0,0,0,0l11.3-12l14.4,8c0.3,0.2,0.6,0.2,1,0.2c0.2,0,0.5,0,0.7-0.1c0.5-0.2,1-0.6,1.2-1.2L91.9,2.8
				C91.9,2.8,91.9,2.8,91.9,2.7C91.9,2.7,91.9,2.7,91.9,2.7L91.9,2.7z M33.6,77.7c-0.8-0.7-2.1-0.7-2.8,0.1L13.7,96.7
				c-0.7,0.8-0.7,2,0.1,2.8c0.4,0.3,0.8,0.5,1.3,0.5c0.5,0,1.1-0.2,1.5-0.6l17.2-18.9C34.5,79.6,34.4,78.4,33.6,77.7 M27.5,66.3
				c-0.8-0.7-2-0.7-2.8,0.1L8.5,83.1c-0.8,0.8-0.7,2,0.1,2.8c0.4,0.4,0.9,0.5,1.4,0.5c0.5,0,1-0.2,1.4-0.6l16.1-16.7
				C28.3,68.3,28.2,67.1,27.5,66.3 M49.5,76.9L35.2,91.8c-0.8,0.8-0.7,2,0.1,2.8c0.4,0.4,0.9,0.5,1.4,0.5c0.5,0,1-0.2,1.4-0.6
				l14.3-14.9c0.8-0.8,0.7-2-0.1-2.8C51.5,76.1,50.3,76.1,49.5,76.9"/>
		</g>
	</g>
	<g>
		<polygon class="st0" points="48.3,54.7 66.5,64.9 84.8,11.4 		"/>
		<polygon class="st0" points="16.3,36.5 30.8,44.5 75.6,10.6 		"/>
		<polygon class="st0" points="33.2,47.5 37.9,61.2 76.5,14.8 		"/>
		<polygon class="st0" points="44.3,64.2 48.8,59.5 46.4,58.1 		"/>
		<polygon class="st0" points="43.4,54.6 36.8,58.1 39.5,66 		"/>
	</g>
</g>
</svg>
