<svg width='200' height='200' fill="#EC5D57" xmlns="http://www.w3.org/2000/svg" xmlns:xlink="http://www.w3.org/1999/xlink" version="1.1" x="0px" y="0px" viewBox="0 0 100 100" enable-background="new 0 0 100 100" xml:space="preserve"><path d="M50,10.07c-22.02,0-39.93,17.91-39.93,39.93c0,22.02,17.91,39.93,39.93,39.93c22.02,0,39.93-17.91,39.93-39.93  C89.93,27.98,72.02,10.07,50,10.07z M66.86,65.3c0.43,0.431,0.43,1.13,0,1.561c-0.221,0.21-0.5,0.319-0.78,0.319  S65.52,67.07,65.3,66.86L50,51.55L34.7,66.86c-0.22,0.21-0.5,0.319-0.78,0.319c-0.28,0-0.56-0.109-0.78-0.319  c-0.43-0.431-0.43-1.13,0-1.561L48.45,50L33.14,34.7c-0.43-0.43-0.43-1.13,0-1.56c0.43-0.43,1.13-0.43,1.56,0L50,48.44l15.3-15.3  c0.431-0.43,1.13-0.43,1.561,0c0.43,0.43,0.43,1.13,0,1.56L51.56,50L66.86,65.3z"/></svg>